<svg id="Layer_1-2" xmlns="http://www.w3.org/2000/svg" width="544.289" height="164.159" viewBox="0 0 544.289 164.159">
  <g id="Group_21" data-name="Group 21">
    <path id="Path_10" data-name="Path 10" d="M0,123.83,73.126,37.176H3.634V.97h119V35.976L49.475,122.63h75.559v36.206H0Z" transform="translate(0 2.177)" fill="#57c4c6"/>
    <path id="Path_11" data-name="Path 11" d="M47.09.97H86.183V158.835H47.09Z" transform="translate(105.682 2.177)" fill="#57c4c6"/>
    <path id="Path_12" data-name="Path 12" d="M68,66.377C68,25.6,92.137,0,135.578,0s67.578,25.6,67.578,66.377v94.635H164.062V66.377c0-19.3-9.181-30.172-28.485-30.172s-28.485,10.868-28.485,30.172v94.635H68Z" transform="translate(152.609)" fill="#57c4c6"/>
    <path id="Path_13" data-name="Path 13" d="M116.06,82.08c0-47.3,34.746-82.08,83.994-82.08,39.353,0,69.751,22.191,80.133,55.509H237.233c-7.494-12.069-20.5-19.3-37.179-19.3-26.8,0-44.414,19.3-44.414,45.874s17.616,45.874,44.414,45.874c19.79,0,33.805-7.981,41.04-23.424H190.418V73.158h93.4v17.13c-3.861,42.954-37.406,73.872-83.767,73.872-49.248,0-83.994-34.746-83.994-82.08Z" transform="translate(260.468)" fill="#57c4c6"/>
  </g>
</svg>
